<?xml version="1.0" encoding="UTF-8"?>
<svg id="Layer_1" data-name="Layer 1" xmlns="http://www.w3.org/2000/svg" viewBox="0 0 412 380">
  <defs>
    <style>
      .cls-1 {
        fill: none;
        stroke-width: 3px;
      }

      .cls-1, .cls-2 {
        stroke: #231f20;
        stroke-miterlimit: 10;
      }

      .cls-3 {
        fill: #000;
      }

      .cls-3, .cls-4, .cls-5 {
        stroke-width: 0px;
      }

      .cls-4, .cls-6 {
        fill: #231f20;
      }

      .cls-6 {
        font-family: Poppins-Regular, Poppins;
        font-size: 47.86px;
      }

      .cls-2 {
        fill: #fff;
      }

      .cls-5 {
        fill: #cad2c5;
      }
    </style>
  </defs>
  <rect class="cls-5" width="412" height="380"/>
  <rect class="cls-2" x="34.52" y="34.41" width="358.95" height="311.17" transform="translate(428 380) rotate(180)"/>
  <text class="cls-6" transform="translate(67.1 101.55)"><tspan x="0" y="0">Accessibility</tspan></text>
  <g>
    <path class="cls-3" d="M201.11,177.87h-13.9c-.02.42-.05.8-.05,1.19,0,3.36.02,6.72,0,10.07-.02,3.16-1.88,5.34-4.88,5.79-2.94.45-6.03-1.99-6.06-4.96-.07-6.03-.07-12.06,0-18.09.03-2.71,2.52-4.96,5.31-4.97,6.03-.02,12.06,0,18.09,0,3.83,0,7.66-.01,11.49,0,5.86.02,10.57,4.74,10.58,10.62.01,9.53,0,19.07,0,28.6,0,.39,0,.78,0,1.28.49,0,.88,0,1.26,0,6.14,0,12.28.03,18.42-.01,3.15-.02,5.35,1.38,6.75,4.17,4.66,9.31,9.33,18.61,13.98,27.92,1.85,3.7.6,7.77-2.89,9.54-3.52,1.77-7.53.36-9.39-3.35-3.95-7.86-7.89-15.72-11.79-23.59-.36-.72-.76-.97-1.56-.96-8.16.03-16.32.03-24.49.01-5.18-.01-9.19-2.96-10.49-7.71-.26-.96-.37-1.99-.37-2.99-.03-10.4-.02-20.8-.02-31.2v-1.35Z"/>
    <path class="cls-3" d="M164.72,231.44c.41-12.33,4.98-21.69,14.17-28.67,3.34-2.54,7.89-1.01,8.85,2.97.58,2.4-.22,4.41-2.22,5.9-3.94,2.92-6.74,6.68-8.35,11.32-4.8,13.79,4.21,28.74,18.6,30.87,12.88,1.91,24.54-6.48,26.81-19.32.55-3.1,3.44-5.24,6.35-4.69,3.23.6,5.2,3.47,4.51,6.72-3.09,14.64-11.87,24.03-26.36,27.69-18.45,4.66-37.78-7.77-41.5-26.45-.47-2.36-.66-4.78-.86-6.34Z"/>
    <path class="cls-3" d="M224.13,150.13c0,6.52-5.25,11.77-11.77,11.76-6.51,0-11.73-5.27-11.71-11.81.02-6.47,5.25-11.7,11.7-11.73,6.48-.03,11.77,5.27,11.77,11.78Z"/>
  </g>
  <g>
    <line class="cls-1" x1="218.98" y1="325.71" x2="260.78" y2="288.72"/>
    <line class="cls-1" x1="219.02" y1="325.71" x2="177.22" y2="288.72"/>
    <rect class="cls-4" x="218.02" y="325.05" width="1.95" height="1.79"/>
  </g>
</svg>