<?xml version="1.0" encoding="UTF-8"?>
<svg id="Layer_1" data-name="Layer 1" xmlns="http://www.w3.org/2000/svg" viewBox="0 0 633 380">
  <defs>
    <style>
      .cls-1 {
        fill: none;
        stroke-width: 3px;
      }

      .cls-1, .cls-2 {
        stroke: #231f20;
        stroke-miterlimit: 10;
      }

      .cls-3 {
        fill: #000;
      }

      .cls-3, .cls-4, .cls-5, .cls-6 {
        stroke-width: 0px;
      }

      .cls-4, .cls-7 {
        fill: #231f20;
      }

      .cls-2, .cls-6 {
        fill: #fff;
      }

      .cls-5 {
        fill: #cad2c5;
      }

      .cls-7 {
        font-family: Poppins-Regular, Poppins;
        font-size: 50px;
      }
    </style>
  </defs>
  <rect class="cls-5" width="633" height="380"/>
  <rect class="cls-2" x="19.76" y="34.88" width="579.38" height="313.17" transform="translate(618.89 382.93) rotate(180)"/>
  <text class="cls-7" transform="translate(56.9 109.41)"><tspan x="0" y="0">Touch here to begin</tspan></text>
  <g>
    <line class="cls-1" x1="306.5" y1="320.02" x2="348.29" y2="283.04"/>
    <line class="cls-1" x1="306.54" y1="320.02" x2="264.74" y2="283.04"/>
    <rect class="cls-4" x="305.54" y="319.37" width="1.95" height="1.79"/>
  </g>
  <g>
    <path class="cls-3" d="M212.06,246.08c-12.12-4.8-24.11-9.55-36.1-14.29v-.24c.36,0,.71,0,1.07,0,7.85,0,15.71-.14,23.56.05,5.06.13,10.21-3.61,10.17-10.21-.08-12.95-.02-25.89-.02-38.84,0-.43,0-.85,0-1.54,2.1.95,4.07,1.76,5.97,2.71,5.36,2.67,10.36,5.88,14.19,10.59,1.11,1.36,1.97,2.98,2.72,4.58.62,1.33.29,1.89-1,2.63-.34.2-.68.42-1.06.52-1.97.57-2.88,1.98-3.6,3.85-5.08,13.05-10.28,26.07-15.44,39.09-.13.33-.27.65-.46,1.09ZM217.69,205.51c0-.8-.69-1.51-1.49-1.53-.82-.02-1.51.64-1.53,1.47-.03.92.61,1.57,1.52,1.56.84-.01,1.5-.67,1.5-1.5ZM222.32,197.83c.83-.01,1.49-.69,1.49-1.52,0-.81-.7-1.53-1.49-1.54-.82-.01-1.6.78-1.56,1.6.03.8.76,1.48,1.57,1.47Z"/>
    <path class="cls-3" d="M176.83,228.51c-7.89,0-15.78-.09-23.67.04-4.37.07-7.23-3.14-7.2-7.14.11-13.92.04-27.83.06-41.75,0-.87-.2-1.57-.8-2.24-3.59-4.09-3.51-8.62.24-12.59,3.1-3.29,7.05-5.24,11.24-6.7,7.78-2.71,15.82-3.54,24.02-3.08,6.92.39,13.63,1.66,19.95,4.59,2.91,1.35,5.6,3.05,7.77,5.46,3.39,3.76,3.47,8.33.14,12.12-.69.78-.98,1.58-.98,2.61.02,13.92.02,27.83,0,41.75,0,3.3-1.54,5.65-4.36,6.54-.8.25-1.68.36-2.53.37-7.96.03-15.93.02-23.89.02ZM176.77,224.77c8.14,0,16.29,0,24.43,0,2.36,0,2.7-.33,2.7-2.64,0-13.99.03-27.98-.03-41.97,0-2.1.22-3.82,1.86-5.47,2.27-2.29,2.08-4.49-.02-6.97-2-2.35-4.63-3.82-7.4-5.03-5.1-2.22-10.48-3.33-16.02-3.76-8.41-.66-16.68,0-24.68,2.85-3.57,1.27-6.94,2.91-9.56,5.77-2.23,2.44-2.27,4.77-.14,7.28.33.38.63.79,1.01,1.11.63.54.8,1.17.8,1.98-.02,14.78-.02,29.56-.02,44.34,0,2.11.39,2.5,2.52,2.5,8.18,0,16.36,0,24.54,0Z"/>
    <path class="cls-3" d="M161.32,231.72c3.91-.78,7.35.42,10.85,1.82,13.13,5.29,26.3,10.45,39.46,15.66,1.81.72,2.33.49,3.03-1.28,5.46-13.79,10.92-27.58,16.36-41.38.3-.76.7-1.25,1.47-1.55.76-.3,1.5-.69,2.18-1.14,2.02-1.34,2.65-3.04,2.04-5.39-.77-2.94-2.54-5.27-4.56-7.43-4.53-4.83-10.05-8.25-16.02-11-1.39-.64-2.81-1.22-4.26-1.85.56-1.09,1.12-2.16,1.8-3.48,3.22,1.6,6.51,3.07,9.65,4.83,5.45,3.06,10.32,6.86,14.06,11.96,1.43,1.95,2.57,4.06,3.08,6.44.86,4-.7,7.41-4.45,9.45-1.23.67-1.92,1.53-2.42,2.8-5,12.74-10.05,25.47-15.09,38.19-1.64,4.13-5.07,5.59-9.19,3.96-14.82-5.87-29.64-11.74-44.47-17.61-1.51-.6-2.76-1.49-3.52-3Z"/>
    <path class="cls-6" d="M217.69,205.51c0,.83-.66,1.48-1.5,1.5-.91.01-1.55-.64-1.52-1.56.03-.83.72-1.49,1.53-1.47.8.02,1.5.73,1.49,1.53Z"/>
    <path class="cls-6" d="M222.32,197.83c-.81.01-1.53-.67-1.57-1.47-.03-.82.74-1.61,1.56-1.6.79.01,1.49.73,1.49,1.54,0,.83-.66,1.51-1.49,1.52Z"/>
    <path class="cls-6" d="M176.77,224.77c-8.18,0-16.36,0-24.54,0-2.13,0-2.52-.39-2.52-2.5,0-14.78,0-29.56.02-44.34,0-.81-.17-1.45-.8-1.98-.38-.32-.69-.73-1.01-1.11-2.13-2.5-2.1-4.83.14-7.28,2.62-2.86,5.99-4.5,9.56-5.77,8-2.85,16.27-3.51,24.68-2.85,5.53.43,10.91,1.54,16.02,3.76,2.77,1.21,5.41,2.67,7.4,5.03,2.11,2.48,2.29,4.68.02,6.97-1.64,1.65-1.86,3.37-1.86,5.47.06,13.99.03,27.98.03,41.97,0,2.3-.34,2.64-2.7,2.64-8.14,0-16.29,0-24.43,0ZM200.86,221.61c0-.56,0-.98,0-1.41,0-13.95.04-27.9-.05-41.85-.01-1.98.45-3.45,1.91-4.82,2.06-1.93,1.93-2.83-.22-4.71-.03-.02-.05-.05-.08-.07-3.26-2.74-7.13-4.19-11.18-5.23-7.92-2.04-15.94-2.26-23.99-1.03-4.61.71-9.12,1.89-13.18,4.29-1.43.85-2.74,1.94-3.95,3.1-1.04.99-.94,1.71-.01,2.82.51.6,1.01,1.22,1.6,1.74.89.78,1.12,1.72,1.12,2.87-.03,14.31-.02,28.62-.02,42.93v1.38h48.03Z"/>
    <path class="cls-3" d="M200.86,221.61h-48.03v-1.38c0-14.31,0-28.62.02-42.93,0-1.15-.23-2.09-1.12-2.87-.59-.52-1.1-1.14-1.6-1.74-.93-1.11-1.02-1.83.01-2.82,1.2-1.15,2.52-2.25,3.95-3.1,4.06-2.4,8.57-3.58,13.18-4.29,8.05-1.24,16.07-1.02,23.99,1.03,4.04,1.04,7.92,2.49,11.18,5.23.03.02.05.05.08.07,2.14,1.89,2.28,2.79.22,4.71-1.47,1.37-1.92,2.84-1.91,4.82.08,13.95.05,27.9.05,41.85,0,.43,0,.85,0,1.41ZM180.86,205.49c.86.02,1.51-.58,1.54-1.44.03-.86-.56-1.53-1.4-1.58-.86-.05-1.62.65-1.63,1.49-.01.8.67,1.51,1.49,1.53ZM193.21,205.49c.85-.02,1.46-.68,1.45-1.53,0-.85-.65-1.49-1.49-1.49-.86,0-1.58.74-1.53,1.59.04.81.75,1.46,1.58,1.44ZM173.22,177.9c-.01-.85-.65-1.48-1.51-1.49-.82,0-1.52.67-1.54,1.48-.02.84.73,1.57,1.59,1.55.84-.03,1.48-.69,1.46-1.54ZM160.97,177.91c-.01-.84-.67-1.49-1.52-1.49-.83,0-1.52.66-1.54,1.47-.02.85.72,1.58,1.58,1.55.83-.02,1.49-.71,1.48-1.54ZM167.1,187.13c0-.85-.62-1.48-1.49-1.5-.88-.02-1.51.58-1.54,1.44-.03.86.7,1.62,1.53,1.6.79-.02,1.49-.74,1.5-1.54ZM188.58,213.18c0-.79-.7-1.48-1.52-1.5-.86-.01-1.51.6-1.53,1.45-.02.87.7,1.61,1.54,1.59.79-.02,1.51-.76,1.51-1.54Z"/>
    <path class="cls-6" d="M180.86,205.49c-.81-.02-1.5-.73-1.49-1.53.01-.85.77-1.54,1.63-1.49.84.05,1.43.72,1.4,1.58-.03.86-.68,1.46-1.54,1.44Z"/>
    <path class="cls-6" d="M193.21,205.49c-.82.02-1.53-.63-1.58-1.44-.04-.85.67-1.59,1.53-1.59.85,0,1.48.64,1.49,1.49.01.86-.61,1.51-1.45,1.53Z"/>
    <path class="cls-6" d="M173.22,177.9c.01.84-.63,1.51-1.46,1.54-.86.03-1.61-.71-1.59-1.55.02-.81.72-1.48,1.54-1.48.85,0,1.5.63,1.51,1.49Z"/>
    <path class="cls-6" d="M160.97,177.91c.01.83-.65,1.51-1.48,1.54-.86.03-1.6-.7-1.58-1.55.02-.81.72-1.48,1.54-1.47.84,0,1.5.65,1.52,1.49Z"/>
    <path class="cls-6" d="M167.1,187.13c0,.8-.71,1.52-1.5,1.54-.83.02-1.56-.74-1.53-1.6.03-.86.66-1.45,1.54-1.44.87.02,1.49.65,1.49,1.5Z"/>
    <path class="cls-6" d="M188.58,213.18c0,.78-.72,1.52-1.51,1.54-.84.02-1.56-.72-1.54-1.59.02-.85.67-1.46,1.53-1.45.82.01,1.52.7,1.52,1.5Z"/>
  </g>
  <path class="cls-3" d="M439.29,154.66c-.5,1.19-.95,2.25-1.4,3.32-19.1-11.93-40.28,1.51-43.06,17.85.41.02.81.06,1.21.06,11.56,0,23.11-.01,34.67.03,1.02,0,1.42-.35,1.78-1.25,4.44-11.12,8.93-22.22,13.41-33.32.8-1.98,1.55-2.36,3.66-1.95,6.67,1.31,13.34,2.62,20.01,3.93,2.11.41,3.09,1.43,2.79,2.93-.3,1.5-1.68,2.1-3.71,1.7-6.01-1.2-12.03-2.38-18.05-3.58-.62-.12-.96,0-1.22.65-4.01,10.13-8.04,20.25-12.07,30.38-.06.15-.07.31-.12.54h13.18c-.95-4.47-2.93-8.39-5.82-11.83-.79-.95-.98-1.69-.39-2.73.36-.64.58-1.36.97-2.33,1.16,1.39,2.27,2.6,3.24,3.92,2.62,3.55,4.43,7.49,5.39,11.79.23,1.03.61,1.29,1.63,1.28,3.33-.04,6,2.39,6.23,5.55.25,3.44-2.42,6.38-5.97,6.4-1.22,0-1.64.29-1.83,1.6-2.01,13.87-4.11,27.73-6.19,41.59-1,6.64-1.99,13.29-2.99,19.93-.28,1.85-.73,2.25-2.6,2.25-12.97,0-25.94,0-38.91,0-1.85,0-2.33-.45-2.6-2.26-1.39-9.31-2.79-18.62-4.18-27.93-1.28-8.57-2.55-17.15-3.82-25.72-.42-2.83-.88-5.66-1.25-8.49-.14-1.08-.83-.92-1.53-.94-3.58-.07-6.18-2.57-6.2-5.94-.01-3.33,2.62-6.07,5.97-6.04,1.21.01,1.61-.33,1.94-1.54,3.64-13.53,12.43-21.66,26.19-24.09,7.19-1.27,14.13.05,20.58,3.6.32.18.62.39,1.04.65ZM441.2,249.68c3.07-20.57,6.13-41.1,9.2-61.73-5.97,0-11.78-.01-17.6.04-.33,0-.79.51-.95.88-1.29,3.1-2.51,6.23-3.76,9.34-1.21,3.03-2.42,6.06-3.7,9.24h20.67c-.39,2.54-.77,4.95-1.13,7.37-1.57,10.37-3.16,20.75-4.68,31.13-.16,1.07-.48,1.34-1.53,1.34-10.14-.04-20.29-.02-30.43-.02h-1.31c-2.01-13.31-4.01-26.5-6.03-39.84h1.47c5.61,0,11.23-.02,16.84.02.77,0,1.17-.19,1.46-.94,2.28-5.78,4.6-11.54,6.91-17.32.15-.36.24-.75.37-1.14h-32.35c3.11,20.6,6.21,41.1,9.31,61.63h37.23ZM430.55,179.45c-.52,0-.81,0-1.09,0-13.13,0-26.27,0-39.4,0-.25,0-.5,0-.75.02-1.25.11-2.14,1.03-2.23,2.27-.08,1.15.66,2.22,1.81,2.5.56.14,1.15.17,1.73.17,6.98.01,13.96,0,20.95,0,5.28,0,10.56.01,15.83-.02.45,0,1.15-.21,1.31-.54.68-1.36,1.19-2.8,1.84-4.42ZM433.66,184.36c.35.03.55.07.74.07,6.89,0,13.77,0,20.66,0,.41,0,.83-.06,1.22-.17,1.19-.34,1.96-1.5,1.8-2.64-.18-1.27-1.04-2.13-2.35-2.13-6.47-.03-12.94-.03-19.41,0-.29,0-.75.23-.86.47-.63,1.42-1.19,2.88-1.81,4.41ZM413.02,210.66c-1.48-.02-2.53.99-2.53,2.44,0,1.37,1.05,2.45,2.4,2.5,1.36.04,2.56-1.12,2.56-2.5,0-1.37-1.04-2.42-2.44-2.44ZM425.79,219.85c1.13.03,2.16-.98,2.17-2.13,0-1.15-.86-2.05-2.02-2.09-1.24-.05-2.18.8-2.22,2-.04,1.15.93,2.19,2.07,2.22ZM424.74,240.87c0-1.09-.8-1.9-1.87-1.89-1,.01-1.83.82-1.87,1.81-.04,1.03.81,1.93,1.85,1.96,1.07.03,1.89-.79,1.9-1.88ZM427.96,231.1c-.95,0-1.71.71-1.64,1.64.07.94.6,1.54,1.58,1.62.89.07,1.71-.71,1.73-1.6.02-.88-.76-1.65-1.66-1.66ZM420.25,221.97c-.02-1-.68-1.65-1.52-1.61-.93.04-1.44.55-1.49,1.47-.04.85.75,1.64,1.58,1.53.88-.11,1.41-.63,1.43-1.39Z"/>
</svg>